<svg xmlns="http://www.w3.org/2000/svg" width="24.74" height="24.74" viewBox="0 0 24.74 24.74">
  <g id="categories_off" data-name="categories off" transform="translate(0.65 0.65)">
    <g id="Group_9201" data-name="Group 9201" transform="translate(334 21.5)" opacity="0.3">
      <path id="Path_3709" data-name="Path 3709" d="M-332.1-21.5a1.907,1.907,0,0,0-1.9,1.9v6.91a1.907,1.907,0,0,0,1.9,1.9h6.889a1.907,1.907,0,0,0,1.9-1.9V-19.6a1.907,1.907,0,0,0-1.9-1.9Z" transform="translate(0)" fill="none" stroke="#000" stroke-miterlimit="10" stroke-width="1.3" fill-rule="evenodd"/>
      <path id="Path_3710" data-name="Path 3710" d="M-284.206-21.5a1.907,1.907,0,0,0-1.9,1.9v6.91a1.907,1.907,0,0,0,1.9,1.9h6.892a1.906,1.906,0,0,0,1.894-1.9V-19.6a1.906,1.906,0,0,0-1.894-1.9Z" transform="translate(-35.14)" fill="none" stroke="#000" stroke-miterlimit="10" stroke-width="1.3" fill-rule="evenodd"/>
      <path id="Path_3711" data-name="Path 3711" d="M-332.1,26.281a1.907,1.907,0,0,0-1.9,1.9v6.912a1.907,1.907,0,0,0,1.9,1.9h6.889a1.907,1.907,0,0,0,1.9-1.9V28.181a1.907,1.907,0,0,0-1.9-1.9Z" transform="translate(0 -35.054)" fill="none" stroke="#000" stroke-miterlimit="10" stroke-width="1.3" fill-rule="evenodd"/>
      <path id="Path_3712" data-name="Path 3712" d="M-284.206,26.281a1.907,1.907,0,0,0-1.9,1.9v6.912a1.907,1.907,0,0,0,1.9,1.9h6.892a1.906,1.906,0,0,0,1.894-1.9V28.181a1.906,1.906,0,0,0-1.894-1.9Z" transform="translate(-35.14 -35.054)" fill="none" stroke="#000" stroke-miterlimit="10" stroke-width="1.3" fill-rule="evenodd"/>
    </g>
  </g>
</svg>
