<svg xmlns="http://www.w3.org/2000/svg" width="27.465" height="22.071" viewBox="0 0 27.465 22.071">
  <g id="chat_off" data-name="chat off" transform="translate(0.7 0.7)">
    <g id="Group_9202" data-name="Group 9202" transform="translate(207.864 -13.502)">
      <g id="Group_9202-2" data-name="Group 9202" transform="translate(-207.864 13.502)">
        <path id="Path_3713" data-name="Path 3713" d="M-195.281,13.5h-8.988a3.6,3.6,0,0,0-3.6,3.6v9.887a3.6,3.6,0,0,0,3.6,3.6h.449v3.146a.449.449,0,0,0,.451.448.447.447,0,0,0,.237-.068l5.73-3.525h12.008a3.6,3.6,0,0,0,3.6-3.6V17.1a3.6,3.6,0,0,0-3.6-3.6h-9.887Z" transform="translate(207.864 -13.502)" fill="none" stroke="#d71f26" stroke-miterlimit="10" stroke-width="1.4"/>
      </g>
      <path id="Path_3714" data-name="Path 3714" d="M-197.553,23.5a.451.451,0,0,0-.407.492.452.452,0,0,0,.492.407h16.178a.45.45,0,0,0,.456-.443.45.45,0,0,0-.443-.456h-16.191A.442.442,0,0,0-197.553,23.5Z" transform="translate(-5.452 -5.504)" fill="#d71f26"/>
      <path id="Path_3715" data-name="Path 3715" d="M-197.553,31.5a.451.451,0,0,0-.407.492.452.452,0,0,0,.492.407h16.178a.45.45,0,0,0,.456-.443.45.45,0,0,0-.443-.456h-16.191A.442.442,0,0,0-197.553,31.5Z" transform="translate(-5.452 -9.908)" fill="#d71f26"/>
      <path id="Path_3716" data-name="Path 3716" d="M-197.553,39.5a.451.451,0,0,0-.407.492.452.452,0,0,0,.492.407h7.19a.45.45,0,0,0,.456-.443.45.45,0,0,0-.443-.456h-7.2A.443.443,0,0,0-197.553,39.5Z" transform="translate(-5.452 -14.313)" fill="#d71f26"/>
    </g>
  </g>
</svg>
