<svg id="Home_on" data-name="Home on" xmlns="http://www.w3.org/2000/svg" width="23.544" height="27.468" viewBox="0 0 23.544 27.468">
  <path id="Path" d="M54.057,10.741,42.9.25a.913.913,0,0,0-1.275.019L31.1,10.76a.967.967,0,0,0-.282.684V26.514a.942.942,0,0,0,.929.954h7.745a.942.942,0,0,0,.929-.954V19.52h4.337v6.994a.942.942,0,0,0,.929.954h7.745a.942.942,0,0,0,.929-.954V11.445A.966.966,0,0,0,54.057,10.741ZM52.5,25.56H46.613V18.566a.942.942,0,0,0-.929-.954h-6.2a.942.942,0,0,0-.929.954V25.56H32.673V11.848l9.622-9.584,10.2,9.6v13.7Z" transform="translate(-30.814 0)" fill="#9e9e9e"/>
</svg>
