<svg id="show_password" data-name="show password" xmlns="http://www.w3.org/2000/svg" width="16.316" height="10.832" viewBox="0 0 16.316 10.832">
  <path id="Path_3721" data-name="Path 3721" d="M8.208,14.332C3.13,14.332.287,9.458.152,9.255a.615.615,0,0,1,0-.677C.287,8.375,3.13,3.5,8.208,3.5s7.921,4.875,8.056,5.078a.615.615,0,0,1,0,.677C16.129,9.458,13.286,14.332,8.208,14.332ZM1.573,8.916c.677,1.016,3.047,4.062,6.635,4.062s5.958-3.047,6.635-4.062C14.166,7.9,11.8,4.854,8.208,4.854S2.25,7.833,1.573,8.916Zm6.635,3.047a3.047,3.047,0,1,1,3.047-3.047A3.034,3.034,0,0,1,8.208,11.963Zm0-4.739A1.693,1.693,0,1,0,9.9,8.916,1.676,1.676,0,0,0,8.208,7.224Z" transform="translate(-0.05 -3.5)"/>
</svg>
