<svg id="User_off" data-name="User off" xmlns="http://www.w3.org/2000/svg" width="23.544" height="23.544" viewBox="0 0 23.544 23.544">
  <g id="User" transform="translate(0)">
    <g id="Group_9197" data-name="Group 9197" transform="translate(0)">
      <path id="Path_3694" data-name="Path 3694" d="M20.1,15.22a11.727,11.727,0,0,0-4.473-2.806,6.806,6.806,0,1,0-7.7,0A11.791,11.791,0,0,0,0,23.544H1.839a9.933,9.933,0,0,1,19.865,0h1.839A11.7,11.7,0,0,0,20.1,15.22Zm-8.324-3.448a4.966,4.966,0,1,1,4.966-4.966A4.972,4.972,0,0,1,11.772,11.772Z" transform="translate(0 0)" fill="#d71f26"/>
    </g>
  </g>
</svg>
