<svg id="visit_as_a_guest" data-name="visit as a guest" xmlns="http://www.w3.org/2000/svg" width="19.65" height="23.05" viewBox="0 0 19.65 23.05">
  <path id="Path_3695" data-name="Path 3695" d="M73.414,60.028H63.236A4.742,4.742,0,0,0,58.5,64.764v2.545A2.193,2.193,0,0,0,60.691,69.5H75.959a2.193,2.193,0,0,0,2.191-2.191V64.764A4.742,4.742,0,0,0,73.414,60.028Zm3.746,7.28a1.2,1.2,0,0,1-1.2,1.2H60.691a1.2,1.2,0,0,1-1.2-1.2V64.764a3.751,3.751,0,0,1,3.746-3.746H67.83v4.594h.99V61.018h4.594a3.751,3.751,0,0,1,3.746,3.746ZM74.667,56.848c-.694-.99-.707-2.187-.734-3.705,0-.355-.01-.721-.024-1.108a5.584,5.584,0,1,0-11.168,0h0c-.014.387-.02.753-.024,1.108-.023,1.518-.04,2.717-.734,3.705l-.549.779H75.215Zm-11.441-.212a9.123,9.123,0,0,0,.481-3.48c0-.352.01-.717.024-1.1v-.018a4.594,4.594,0,0,1,9.189,0v.018c.014.379.02.744.024,1.1a9.123,9.123,0,0,0,.481,3.48Z" transform="translate(-58.5 -46.45)" fill="#d71f26"/>
</svg>
